<svg width="29" height="29" viewBox="0 0 29 29" fill="none" xmlns="http://www.w3.org/2000/svg">
<path d="M11.4717 1.93754C12.3904 -0.645849 16.0433 -0.645849 16.962 1.93754C17.5406 3.56423 19.3996 4.33406 20.959 3.59281C23.4353 2.4159 26.0177 4.99842 24.8409 7.47465C24.0996 9.03411 24.8702 10.8932 26.4971 11.4717C29.0798 12.3906 29.0798 16.043 26.4971 16.962C24.8702 17.5405 24.0996 19.3996 24.8409 20.959C26.0178 23.4353 23.4353 26.0178 20.959 24.8409C19.3996 24.0996 17.5405 24.8702 16.962 26.4971C16.043 29.0798 12.3906 29.0798 11.4717 26.4971C10.8932 24.8702 9.03412 24.0996 7.47465 24.8409C4.99841 26.0177 2.41589 23.4353 3.59282 20.959C4.33406 19.3996 3.56423 17.5406 1.93754 16.962C-0.645845 16.0433 -0.645845 12.3904 1.93754 11.4717C3.56421 10.8931 4.33406 9.03402 3.59282 7.47465C2.41599 4.99844 4.99845 2.41598 7.47465 3.59281C9.03402 4.33405 10.8931 3.56422 11.4717 1.93754ZM14.2168 7.21684C10.3509 7.21686 7.21686 10.3509 7.21684 14.2168C7.21684 18.0828 10.3509 21.2168 14.2168 21.2168C18.0828 21.2168 21.2168 18.0828 21.2168 14.2168C21.2168 10.3509 18.0828 7.21684 14.2168 7.21684Z" fill="black"/>
</svg>
